<svg width="100" height="100" viewBox="0 0 100 100" fill="none" xmlns="http://www.w3.org/2000/svg">
<mask id="path-1-inside-1_634_4227" fill="white">
<path fill-rule="evenodd" clip-rule="evenodd" d="M12.7636 22.8537L14.5031 22.8537L27.7068 22.8537H12.7636ZM100 63.8313C100 69.2747 96.884 73.9903 92.3384 76.2917V49.0246C92.3384 38.4981 83.805 29.9647 73.2785 29.9647H43.3908C42.7688 29.9647 42.1871 29.6565 41.8378 29.1417L37.7035 23.0491C35.4551 19.7357 31.711 17.7516 27.7068 17.7516H12.7636V14.9789C12.7636 11.1246 15.8882 8 19.7425 8H27.2667H40.4704C42.7836 8 44.9465 9.14615 46.2453 11.0602L50.3796 17.1529C51.6784 19.0669 53.8413 20.2131 56.1544 20.2131H86.0422C93.7509 20.2131 100 26.4622 100 34.1709V35.9156V46.384V56.8524V63.8313Z"/>
</mask>
<path fill-rule="evenodd" clip-rule="evenodd" d="M12.7636 22.8537L14.5031 22.8537L27.7068 22.8537H12.7636ZM100 63.8313C100 69.2747 96.884 73.9903 92.3384 76.2917V49.0246C92.3384 38.4981 83.805 29.9647 73.2785 29.9647H43.3908C42.7688 29.9647 42.1871 29.6565 41.8378 29.1417L37.7035 23.0491C35.4551 19.7357 31.711 17.7516 27.7068 17.7516H12.7636V14.9789C12.7636 11.1246 15.8882 8 19.7425 8H27.2667H40.4704C42.7836 8 44.9465 9.14615 46.2453 11.0602L50.3796 17.1529C51.6784 19.0669 53.8413 20.2131 56.1544 20.2131H86.0422C93.7509 20.2131 100 26.4622 100 34.1709V35.9156V46.384V56.8524V63.8313Z" fill="#16161A"/>
<path d="M14.5031 22.8537L14.5031 23.726L14.5031 23.726L14.5031 22.8537ZM92.3384 76.2917H91.4661V77.7112L92.7325 77.07L92.3384 76.2917ZM41.8378 29.1417L42.5596 28.6519L42.5596 28.6519L41.8378 29.1417ZM37.7035 23.0491L38.4254 22.5593L38.4254 22.5593L37.7035 23.0491ZM12.7636 17.7516H11.8912V18.624H12.7636V17.7516ZM46.2453 11.0602L45.5234 11.5501L45.5234 11.5501L46.2453 11.0602ZM50.3796 17.1529L49.6577 17.6427L49.6577 17.6427L50.3796 17.1529ZM12.7636 23.726L14.5031 23.726L14.5031 21.9813L12.7636 21.9813L12.7636 23.726ZM14.5031 23.726L27.7068 23.726L27.7068 21.9813L14.5031 21.9813L14.5031 23.726ZM27.7068 21.9813H12.7636V23.726H27.7068V21.9813ZM92.7325 77.07C97.56 74.6258 100.872 69.6161 100.872 63.8313H99.1276C99.1276 68.9332 96.208 73.3547 91.9444 75.5134L92.7325 77.07ZM93.2108 76.2917V49.0246H91.4661V76.2917H93.2108ZM93.2108 49.0246C93.2108 38.0163 84.2868 29.0924 73.2785 29.0924V30.8371C83.3232 30.8371 91.4661 38.9799 91.4661 49.0246H93.2108ZM73.2785 29.0924H43.3908V30.8371H73.2785V29.0924ZM43.3908 29.0924C43.0579 29.0924 42.7466 28.9274 42.5596 28.6519L41.1159 29.6315C41.6276 30.3856 42.4796 30.8371 43.3908 30.8371V29.0924ZM42.5596 28.6519L38.4254 22.5593L36.9816 23.5389L41.1159 29.6315L42.5596 28.6519ZM38.4254 22.5593C36.0146 19.0066 32.0002 16.8793 27.7068 16.8793V18.624C31.4219 18.624 34.8956 20.4648 36.9816 23.5389L38.4254 22.5593ZM27.7068 16.8793H12.7636V18.624H27.7068V16.8793ZM11.8912 14.9789V17.7516H13.636V14.9789H11.8912ZM19.7425 7.12764C15.4064 7.12764 11.8912 10.6428 11.8912 14.9789H13.636C13.636 11.6064 16.37 8.87236 19.7425 8.87236V7.12764ZM27.2667 7.12764H19.7425V8.87236H27.2667V7.12764ZM40.4704 7.12764H27.2667V8.87236H40.4704V7.12764ZM46.9672 10.5704C45.506 8.41706 43.0727 7.12764 40.4704 7.12764V8.87236C42.4944 8.87236 44.387 9.87525 45.5234 11.5501L46.9672 10.5704ZM51.1014 16.663L46.9672 10.5704L45.5234 11.5501L49.6577 17.6427L51.1014 16.663ZM56.1544 19.3407C54.1304 19.3407 52.2379 18.3378 51.1014 16.663L49.6577 17.6427C51.1189 19.796 53.5521 21.0855 56.1544 21.0855V19.3407ZM86.0422 19.3407H56.1544V21.0855H86.0422V19.3407ZM100.872 34.1709C100.872 25.9804 94.2327 19.3407 86.0422 19.3407V21.0855C93.2691 21.0855 99.1276 26.944 99.1276 34.1709H100.872ZM100.872 35.9156V34.1709H99.1276V35.9156H100.872ZM100.872 46.384V35.9156H99.1276V46.384H100.872ZM100.872 56.8524V46.384H99.1276V56.8524H100.872ZM100.872 63.8313V56.8524H99.1276V63.8313H100.872Z" fill="#16161A" mask="url(#path-1-inside-1_634_4227)"/>
<path d="M13.9578 92.6428H73.2786C80.9873 92.6428 87.2364 86.3936 87.2364 78.685V71.706V61.2377V50.7693V49.0246C87.2364 41.3159 80.9873 35.0668 73.2786 35.0668H43.3908C41.0777 35.0668 38.9148 33.9206 37.616 32.0065L33.4817 25.9139C32.1828 23.9998 30.02 22.8537 27.7068 22.8537H14.503H6.97891C3.12456 22.8537 0 25.9782 0 29.8326V78.685C0 86.3937 6.24914 92.6428 13.9578 92.6428Z" fill="#16161A"/>
</svg>
