<svg width="100" height="100" viewBox="0 0 100 100" fill="none" xmlns="http://www.w3.org/2000/svg">
<path fill-rule="evenodd" clip-rule="evenodd" d="M0 18C0 9.16345 7.16344 2 16 2H84C92.8366 2 100 9.16344 100 18V82C100 90.8366 92.8366 98 84 98H16C7.16345 98 0 90.8366 0 82V18ZM7 41C7 39.8954 7.89543 39 9 39H91C92.1046 39 93 39.8954 93 41V81C93 86.5229 88.5229 91 83 91H17C11.4772 91 7 86.5229 7 81V41ZM16 24C18.7614 24 21 21.7614 21 19C21 16.2386 18.7614 14 16 14C13.2386 14 11 16.2386 11 19C11 21.7614 13.2386 24 16 24ZM35 19C35 21.7614 32.7614 24 30 24C27.2386 24 25 21.7614 25 19C25 16.2386 27.2386 14 30 14C32.7614 14 35 16.2386 35 19ZM44 24C46.7614 24 49 21.7614 49 19C49 16.2386 46.7614 14 44 14C41.2386 14 39 16.2386 39 19C39 21.7614 41.2386 24 44 24Z" fill="#FAFBFC"/>
</svg>
