<svg width="100" height="100" viewBox="0 0 100 100" fill="none" xmlns="http://www.w3.org/2000/svg">
<path fill-rule="evenodd" clip-rule="evenodd" d="M10.5263 47.8421C10.5263 33.0176 22.5439 21 37.3684 21H73.1579C87.9824 21 100 33.0176 100 47.8421C100 62.6666 87.9824 74.6842 73.1579 74.6842H37.3684C32.5697 74.6842 28.0651 73.425 24.1671 71.2189C22.4296 73.3346 19.7934 74.6842 16.8421 74.6842C11.6099 74.6842 7.36841 70.4427 7.36841 65.2105C7.36841 61.6953 9.28297 58.6272 12.1262 56.9922C11.0909 54.1365 10.5263 51.0552 10.5263 47.8421ZM42.1052 48.3684C42.1052 51.8565 39.2776 54.6842 35.7895 54.6842C32.3013 54.6842 29.4737 51.8565 29.4737 48.3684C29.4737 44.8803 32.3013 42.0526 35.7895 42.0526C39.2776 42.0526 42.1052 44.8803 42.1052 48.3684ZM54.7368 54.6842C58.2249 54.6842 61.0526 51.8565 61.0526 48.3684C61.0526 44.8803 58.2249 42.0526 54.7368 42.0526C51.2487 42.0526 48.421 44.8803 48.421 48.3684C48.421 51.8565 51.2487 54.6842 54.7368 54.6842ZM80 48.3684C80 51.8565 77.1723 54.6842 73.6842 54.6842C70.1961 54.6842 67.3684 51.8565 67.3684 48.3684C67.3684 44.8803 70.1961 42.0526 73.6842 42.0526C77.1723 42.0526 80 44.8803 80 48.3684Z" fill="#16161A"/>
<path d="M8.42105 75.7368C8.42105 78.0622 6.53594 79.9474 4.21053 79.9474C1.88512 79.9474 0 78.0622 0 75.7368C0 73.4114 1.88512 71.5263 4.21053 71.5263C6.53594 71.5263 8.42105 73.4114 8.42105 75.7368Z" fill="#16161A"/>
</svg>
