<svg width="100" height="100" viewBox="0 0 100 100" fill="none" xmlns="http://www.w3.org/2000/svg">
<path d="M11.9934 71.735C15.7906 71.735 18.9857 70.67 21.1158 68.5399C23.0607 66.595 24.1721 63.7703 24.1721 60.0657V41.8672C24.1721 40.8948 23.3849 40.0613 22.3661 40.0613C21.3474 40.0613 20.6065 40.8948 20.6065 41.8672V44.5993C18.6616 42.0061 15.7443 39.7834 11.2525 39.7834C5.5568 39.7834 0 44.0899 0 51.0822V51.1749C0 58.0746 5.5105 62.3811 11.2525 62.3811C15.6517 62.3811 18.569 60.1121 20.6528 57.3337V60.1584C20.6528 65.7615 17.2261 68.6788 11.9471 68.6788C8.84458 68.6788 5.97356 67.7527 3.473 66.0856C3.24147 65.9467 3.00993 65.8541 2.68579 65.8541C1.85227 65.8541 1.06505 66.6413 1.06505 67.4285C1.06505 68.0768 1.43551 68.6325 1.99119 68.9103C5.00112 70.7626 8.3352 71.735 11.9934 71.735ZM11.9471 59.2322C7.50168 59.2322 3.65823 55.8981 3.65823 51.0822V50.9896C3.65823 46.0811 7.40907 42.9323 11.9471 42.9323C16.4852 42.9323 20.7454 46.1274 20.7454 51.0359V51.1286C20.7454 55.9445 16.4852 59.2322 11.9471 59.2322Z" fill="#16161A"/>
<path d="M30.3801 62.6589C30.3801 63.6777 31.1673 64.4649 32.186 64.4649C33.2048 64.4649 33.9457 63.6777 33.9457 62.6589V41.8672C33.9457 40.8485 33.1585 40.0613 32.1397 40.0613C31.1673 40.0613 30.3801 40.8948 30.3801 41.8672V62.6589Z" fill="#16161A"/>
<path d="M40.4608 62.6589C40.4608 63.6777 41.248 64.4649 42.2668 64.4649C43.2855 64.4649 44.0264 63.6777 44.0264 62.6589V41.8672C44.0264 40.8485 43.2392 40.0613 42.2205 40.0613C41.248 40.0613 40.4608 40.8948 40.4608 41.8672V62.6589Z" fill="#16161A"/>
<path d="M73.0003 32.0039C73.0003 30.9851 72.2131 30.1979 71.1943 30.1979C70.1756 30.1979 69.4347 30.9851 69.4347 32.0039V44.8772C67.5824 42.1914 64.7114 39.7834 60.266 39.7834C54.5239 39.7834 48.8282 44.4141 48.8282 52.2399V52.3325C48.8282 60.2047 54.5239 64.7427 60.266 64.7427C64.6651 64.7427 67.4898 62.2885 69.4347 59.4175V62.6589C69.4347 63.6777 70.2219 64.4649 71.2407 64.4649C72.2131 64.4649 73.0003 63.6777 73.0003 62.6589V32.0039ZM60.9143 42.9786C65.3597 42.9786 69.5736 46.6831 69.5736 52.1936V52.2862C69.5736 57.7967 65.3597 61.5476 60.9143 61.5476C56.4225 61.5476 52.4864 57.9356 52.4864 52.2862V52.1936C52.4864 46.4053 56.2836 42.9786 60.9143 42.9786Z" fill="#16161A"/>
<path d="M81.0143 50.9433C81.4773 46.2664 84.6262 42.7934 88.7938 42.7934C93.5634 42.7934 96.0639 46.5905 96.4344 50.9433H81.0143ZM98.3793 61.1771C98.7497 60.853 98.9349 60.4362 98.9349 60.0194C98.9349 59.1859 98.2403 58.4913 97.3605 58.4913C96.9438 58.4913 96.6196 58.6765 96.3418 58.9081C94.5821 60.5288 92.4057 61.6865 89.4421 61.6865C85.1819 61.6865 81.5236 58.7692 81.0143 53.5828H98.333C99.2128 53.5828 100 52.8882 100 51.9158C100 45.5718 95.9713 39.7834 88.8864 39.7834C82.2645 39.7834 77.4023 45.3402 77.4023 52.2399V52.3325C77.4023 59.7416 82.7739 64.789 89.3495 64.789C93.4244 64.789 96.1102 63.3535 98.3793 61.1771Z" fill="#16161A"/>
<circle cx="32.1366" cy="32.5233" r="3.52333" fill="#16161A"/>
<circle cx="42.455" cy="32.5233" r="2.77333" stroke="#16161A" stroke-width="1.5"/>
</svg>
