<svg width="100" height="100" viewBox="0 0 100 100" fill="none" xmlns="http://www.w3.org/2000/svg">
<path fill-rule="evenodd" clip-rule="evenodd" d="M79.0645 0H21V73.7854C21 80.8995 26.7596 86.6667 33.8997 86.6667H41.0993V100L50.0323 93.3333L59.0423 100V86.6667H66.1577C73.286 86.6667 79.0645 80.9136 79.0645 73.7622V52.2222V13.3333H25.4665V11.1111H79.0645V6.66666H25.4665V4.44444H79.0645V0ZM50.0323 40C54.9658 40 58.9653 36.0203 58.9653 31.1111C58.9653 26.2019 54.9658 22.2222 50.0323 22.2222C45.0987 22.2222 41.0993 26.2019 41.0993 31.1111C41.0993 36.0203 45.0987 40 50.0323 40ZM41.0993 46.6667H58.9653V84.6667H41.0993V46.6667Z" fill="#16161A"/>
</svg>
