<svg width="100" height="100" viewBox="0 0 100 100" fill="none" xmlns="http://www.w3.org/2000/svg">
<g clip-path="url(#clip0_1217_6572)">
<path d="M9.70427 72.7649H18.2816V29.5652H10.8312C9.95471 35.0747 5.25909 37.0156 0 37.2034V42.8381H9.70427V72.7649Z" fill="#FAFBFC"/>
<path d="M34.2218 72.7649H42.7991V29.5652H35.3487C34.4722 35.0747 29.7766 37.0156 24.5175 37.2034V42.8381H34.2218V72.7649Z" fill="#FAFBFC"/>
<path d="M48.221 46.2816H52.6662V65.1267C52.6662 71.1997 57.2366 72.8275 61.3688 72.8275C64.7496 72.8275 66.6905 72.7023 66.6905 72.7023V66.4414C66.6905 66.4414 65.2505 66.5041 64.1861 66.5041C62.3079 66.5041 60.9931 65.6901 60.9931 63.311V46.2816H66.5026V40.6469H60.9931V30.6295H52.6662V40.6469H48.221V46.2816Z" fill="#FAFBFC"/>
<path d="M79.4019 28H70.8872V72.7649H79.4019V54.5459C79.4019 50.1633 82.1567 47.1581 85.9132 47.1581C89.4818 47.1581 91.4853 49.5998 91.4853 53.0433V72.7649H100V51.7911C100 44.779 95.5548 39.7703 88.9183 39.7703C84.5358 39.7703 81.9062 41.4608 79.5897 44.8416H79.4019V28Z" fill="#FAFBFC"/>
</g>
<defs>
<clipPath id="clip0_1217_6572">
<rect width="100" height="100" fill="white"/>
</clipPath>
</defs>
</svg>
