<svg width="100" height="100" viewBox="0 0 100 100" fill="none" xmlns="http://www.w3.org/2000/svg">
<g clip-path="url(#clip0)">
<path fill-rule="evenodd" clip-rule="evenodd" d="M100 10.0153V23.2027C100 23.755 99.5554 24.199 99.0158 24.3166C90.7229 26.1254 73.4374 48.9517 73.4374 55.4527C73.4374 64.9714 90.3038 74.4902 99.0058 75.2018C99.5562 75.2468 100 75.6921 100 76.2444V90.911C100 91.4633 99.5472 91.9133 98.9955 91.8878C82.8105 91.137 71.688 72.4409 68.587 66.5728C68.2058 65.8513 67.1468 65.8203 66.7333 66.5238C61.4849 75.4545 49.9233 91.911 33.3333 91.911C14.5833 91.911 0 73.161 0 49.7235C0 35.6225 7.8125 9.09852 30.2083 9.09852C48.3562 9.09852 59.7817 25.8248 64.5699 35.0857C64.9776 35.8744 66.1598 35.8228 66.5082 35.0063C70.8524 24.8243 81.7887 8.13943 99.0789 9.03459C99.5969 9.06141 100 9.49663 100 10.0153ZM59.8958 45.036C59.8958 48.6819 45.2083 76.286 30.2083 76.286C11.4583 76.286 7.29167 59.0985 7.29167 50.2444C7.29167 41.3902 16.1458 26.286 30.2083 26.286C44.2708 26.286 59.8958 41.3902 59.8958 45.036Z" fill="#16161A"/>
</g>
<defs>
<clipPath id="clip0">
<rect width="100" height="100" fill="white"/>
</clipPath>
</defs>
</svg>
