<svg width="100" height="100" viewBox="0 0 100 100" fill="none" xmlns="http://www.w3.org/2000/svg">
<path fill-rule="evenodd" clip-rule="evenodd" d="M19.1552 90.668C23.7393 94.466 29.3059 97.5767 35.8546 100V92.706C35.7536 92.6927 35.6683 92.6707 35.6284 92.6607H35.6283L35.6229 92.6593C35.5246 92.634 35.4087 92.5993 35.2798 92.558C35.0204 92.474 34.6787 92.3507 34.2685 92.1853C33.4467 91.8553 32.3304 91.3507 31.0201 90.6433C28.4002 89.2287 24.9883 86.9947 21.6013 83.706C14.8095 77.1107 8.1556 66.3073 8.1556 49.5089C8.1556 32.7071 14.813 22.2769 21.6237 16.0584C25.0176 12.9596 28.436 10.918 31.0599 9.6492C32.3723 9.0146 33.4899 8.57127 34.3123 8.28467C34.7229 8.14153 35.064 8.036 35.3221 7.96487C35.4505 7.92953 35.5646 7.90093 35.6601 7.88027L35.6621 7.87987C35.7001 7.87167 35.7714 7.85627 35.8546 7.84573V0C29.3059 2.48854 23.7393 5.63195 19.1552 9.43027C14.6365 13.2285 10.9365 17.3871 8.055 21.9057C5.23903 26.3589 3.17616 31.0085 1.86641 35.8546C0.622135 40.7007 0 45.4159 0 50C0 54.5841 0.622135 59.332 1.86641 64.2436C3.17616 69.09 5.23903 73.7393 8.055 78.1927C10.9365 82.7113 14.6365 86.87 19.1552 90.668ZM35.8546 9.89273V17.0923C33.8245 18.2056 31.7616 19.7773 29.666 21.8075C27.5704 23.8376 25.6713 26.2607 23.9686 29.0766C22.2659 31.8926 20.8579 35.1015 19.7446 38.7033C18.6968 42.2397 18.1729 46.0707 18.1729 50.1965C18.1729 54.0603 18.6641 57.7276 19.6464 61.1984C20.6942 64.6693 22.0367 67.8127 23.6739 70.6287C25.3765 73.4447 27.2757 75.9007 29.3713 77.996C31.4669 80.1573 33.6281 81.8273 35.8546 83.006V90.6413C35.65 90.574 35.3667 90.4713 35.0143 90.33C34.2622 90.0273 33.2141 89.5547 31.9703 88.8833C29.482 87.54 26.2268 85.4093 22.9946 82.2707C16.5481 76.0113 10.1556 65.7101 10.1556 49.5089C10.1556 33.3109 16.5447 23.404 22.9723 17.5353C26.1975 14.5906 29.4462 12.6511 31.9305 11.4497C33.1723 10.8493 34.219 10.4352 34.9705 10.1732C35.3468 10.0421 35.645 9.95047 35.8534 9.89307C35.8538 9.89293 35.8542 9.8928 35.8546 9.89273Z" fill="#16161A"/>
<path fill-rule="evenodd" clip-rule="evenodd" d="M80.5533 90.668C75.9693 94.466 70.4033 97.5767 63.8542 100V92.706C63.955 92.6927 64.0402 92.6707 64.0801 92.6607H64.0802L64.0855 92.6593C64.1838 92.634 64.2998 92.5993 64.4286 92.558C64.688 92.474 65.0297 92.3507 65.44 92.1853C66.2617 91.8553 67.378 91.3507 68.6886 90.6433C71.308 89.2287 74.72 86.9947 78.1073 83.706C84.8986 77.1107 91.5526 66.3073 91.5526 49.5089C91.5526 32.7071 84.8953 22.2769 78.0846 16.0584C74.6906 12.9596 71.2726 10.918 68.6486 9.6492C67.336 9.0146 66.2185 8.57127 65.3962 8.28467C64.9855 8.14153 64.6444 8.036 64.3863 7.96487C64.2579 7.92953 64.1438 7.90093 64.0483 7.88027L64.0463 7.87987C64.0084 7.87167 63.9372 7.85627 63.8542 7.8458V0C70.4033 2.48854 75.9693 5.63196 80.5533 9.43027C85.072 13.2285 88.7726 17.3871 91.654 21.9057C94.47 26.3589 96.5327 31.0085 97.8427 35.8546C99.0867 40.7007 99.7086 45.4159 99.7086 50C99.7086 54.5841 99.0867 59.332 97.8427 64.2436C96.5327 69.09 94.47 73.7393 91.654 78.1927C88.7726 82.7113 85.072 86.87 80.5533 90.668ZM63.8542 9.8928V17.0923C65.8843 18.2056 67.9473 19.7773 70.0426 21.8075C72.1386 23.8376 74.0373 26.2607 75.74 29.0766C77.4426 31.8926 78.8506 35.1015 79.964 38.7033C81.012 42.2397 81.536 46.0707 81.536 50.1965C81.536 54.0603 81.0446 57.7276 80.0626 61.1985C79.0146 64.6693 77.672 67.8127 76.0346 70.6287C74.332 73.4447 72.4333 75.9007 70.3373 77.996C68.242 80.1573 66.0808 81.8273 63.8542 83.006V90.6413C64.0588 90.574 64.342 90.4713 64.6942 90.33C65.4462 90.0273 66.4943 89.5547 67.738 88.8833C70.2266 87.54 73.4813 85.4093 76.714 82.2707C83.1606 76.0113 89.5526 65.7101 89.5526 49.5089C89.5526 33.3109 83.164 23.404 76.736 17.5353C73.5113 14.5906 70.262 12.6511 67.778 11.4497C66.5362 10.8493 65.4894 10.4352 64.7379 10.1732C64.3616 10.0421 64.0634 9.95047 63.8551 9.89307C63.8548 9.893 63.8545 9.89287 63.8542 9.8928Z" fill="#16161A"/>
</svg>
