<svg width="100" height="100" viewBox="0 0 100 100" fill="none" xmlns="http://www.w3.org/2000/svg">
<path fill-rule="evenodd" clip-rule="evenodd" d="M19.7686 69.5371C30.6864 69.5371 39.5371 60.6864 39.5371 49.7686C39.5371 38.8507 30.6864 30 19.7686 30C8.85069 30 0 38.8507 0 49.7686C0 60.6864 8.85069 69.5371 19.7686 69.5371ZM19.7686 59.4118C25.0944 59.4118 29.4118 55.0944 29.4118 49.7686C29.4118 44.4428 25.0944 40.1254 19.7686 40.1254C14.4428 40.1254 10.1254 44.4428 10.1254 49.7686C10.1254 55.0944 14.4428 59.4118 19.7686 59.4118ZM43.8766 35.8824C43.8766 32.8999 46.2943 30.4822 49.2768 30.4822C52.2592 30.4822 54.6769 32.8999 54.6769 35.8824V63.4619C54.6769 66.4443 52.2592 68.8621 49.2768 68.8621C46.2943 68.8621 43.8766 66.4443 43.8766 63.4619V35.8824ZM64.4166 30.4822C61.4341 30.4822 59.0164 32.8999 59.0164 35.8824V63.4619C59.0164 66.4443 61.4341 68.8621 64.4166 68.8621C67.399 68.8621 69.8168 66.4443 69.8168 63.4619V35.8824C69.8168 32.8999 67.399 30.4822 64.4166 30.4822ZM74.1562 47.8399C74.1562 44.8575 76.574 42.4397 79.5564 42.4397C82.5389 42.4397 84.9566 44.8575 84.9566 47.8399V51.5043C84.9566 54.4868 82.5389 56.9045 79.5564 56.9045C76.574 56.9045 74.1562 54.4868 74.1562 51.5043V47.8399ZM94.5998 37.5217C91.6174 37.5217 89.1996 39.9395 89.1996 42.9219V56.4224C89.1996 59.4048 91.6174 61.8226 94.5998 61.8226C97.5823 61.8226 100 59.4048 100 56.4224V42.9219C100 39.9394 97.5823 37.5217 94.5998 37.5217Z" fill="white"/>
</svg>
