<?xml version="1.0" encoding="UTF-8"?>
<svg width="320px" height="568px" viewBox="0 0 320 568" version="1.1" xmlns="http://www.w3.org/2000/svg" xmlns:xlink="http://www.w3.org/1999/xlink">
    <!-- Generator: Sketch 57.1 (83088) - https://sketch.com -->
    <title>mask</title>
    <desc>Created with Sketch.</desc>
    <g id="Iteration-6.0" stroke="none" stroke-width="1" fill="none" fill-rule="evenodd">
        <g id="panton">
            <g id="mask" transform="translate(0.000000, -0.000000)">
                <path d="M0,489.30698 L320,489.30698 L320,567.990391 C247.736511,564.133728 194.069845,555.230561 159,541.280891 C123.930155,527.33122 70.9301555,518.711536 0,515.421837 L0,489.30698 Z" id="wave-8" fill="#0B65A3" transform="translate(160.000000, 528.648686) scale(-1, -1) translate(-160.000000, -528.648686) "></path>
                <path d="M0,-1.42108547e-14 L320,-1.42108547e-14 L320,72.2099824 C254.964044,73.5053865 201.630711,65.2556736 160,47.4608436 C118.369289,29.6660137 65.0359558,20.6073646 0,20.2848962 L0,-1.42108547e-14 Z" id="wave-1" fill="#FE4501"></path>
                <path d="M0,411.035582 L0,490.420755 C70.2617965,493.389226 123.928463,502.272864 161,517.071667 C198.071537,531.87047 251.071537,540.507041 320,542.981379 L320,462.61362 C257.530355,463.700589 204.530355,455.209325 161,437.139828 C117.469645,419.07033 63.802978,410.368915 0,411.035582 Z" id="wave-7" fill="#2B4CC2"></path>
                <path d="M0,20.320478 L0,98.8371908 C62.0132961,98.8371908 115.679963,107.76952 161,125.634177 C206.320037,143.498835 259.320037,152.204334 320,151.750674 L320,71.8985164 C257.530355,72.9854851 204.530355,64.4942209 161,46.4247237 C117.469645,28.3552266 63.802978,19.6538113 0,20.320478 Z" id="wave-2" fill="#FF540D"></path>
                <path d="M0,333.035582 L0,411.552295 C62.0132961,411.552295 115.679963,420.484624 161,438.349281 C206.320037,456.213939 259.320037,464.919438 320,464.465777 L320,384.61362 C257.530355,385.700589 204.530355,377.209325 161,359.139828 C117.469645,341.07033 63.802978,332.368915 0,333.035582 Z" id="wave-6" fill="#3F2590"></path>
                <path d="M0,97.7278564 L0,177.552295 C62.0132961,177.552295 115.679963,186.484624 161,204.349281 C206.320037,222.213939 259.320037,230.919438 320,230.465777 L320,150.61362 C257.530355,151.700589 204.530355,143.209325 161,125.139828 C117.469645,107.07033 63.802978,97.9330067 0,97.7278564 Z" id="wave-3" fill="#F82D1F"></path>
                <path d="M0,255.035582 L0,333.552295 C62.0132961,333.552295 115.679963,342.484624 161,360.349281 C206.320037,378.213939 259.320037,386.919438 320,386.465777 L320,306.61362 C257.530355,307.700589 204.530355,299.209325 161,281.139828 C117.469645,263.07033 63.802978,254.368915 0,255.035582 Z" id="wave-5" fill="#793396"></path>
                <path d="M0,177.035582 L0,255.552295 C62.0132961,255.552295 115.679963,264.484624 161,282.349281 C206.320037,300.213939 259.320037,308.919438 320,308.465777 L320,228.61362 C257.530355,229.700589 204.530355,221.209325 161,203.139828 C117.469645,185.07033 63.802978,176.368915 0,177.035582 Z" id="wave-4" fill="#D62D7D"></path>
            </g>
        </g>
    </g>
</svg>