<svg width="100" height="100" viewBox="0 0 100 100" fill="none" xmlns="http://www.w3.org/2000/svg">
<rect y="38.3723" width="22.3411" height="22.3411" fill="#16161A"/>
<path d="M26.8091 38.4344H36.9867C38.0624 38.4344 39.0346 38.5896 39.9034 38.8998C40.7929 39.1895 41.548 39.6032 42.1686 40.141C42.7891 40.6789 43.2649 41.3305 43.5959 42.0959C43.9476 42.8406 44.1234 43.6784 44.1234 44.6092C44.1234 45.9125 43.8028 47.0399 43.1615 47.9914C42.5202 48.9223 41.4859 49.5843 40.0586 49.9773V50.0704C41.0722 50.36 41.8479 50.8461 42.3858 51.5288C42.9443 52.1907 43.296 53.194 43.4408 54.5386C43.5235 55.3247 43.5752 56.059 43.5959 56.7417C43.6373 57.4036 43.6787 57.9932 43.72 58.5103C43.7821 59.0275 43.8648 59.4516 43.9683 59.7825C44.0717 60.1135 44.2165 60.3204 44.4027 60.4031V60.6203H40.0896C39.9448 60.5583 39.831 60.3721 39.7483 60.0618C39.6655 59.7308 39.5931 59.3274 39.5311 58.8517C39.4897 58.3759 39.4483 57.8484 39.407 57.2692C39.3656 56.69 39.3242 56.1004 39.2828 55.5005C39.1794 54.28 38.776 53.3491 38.0727 52.7079C37.3901 52.0459 36.3454 51.7149 34.9387 51.7149H31.3083V60.6203H26.8091V38.4344ZM31.3083 48.2397H36.0868C37.328 48.2397 38.2485 47.9604 38.8484 47.4019C39.4483 46.8227 39.7483 46.0883 39.7483 45.1988C39.7483 44.2886 39.4587 43.5439 38.8795 42.9647C38.3002 42.3648 37.4107 42.0648 36.2109 42.0648H31.3083V48.2397Z" fill="#16161A"/>
<path d="M54.557 38.4344H57.9081L49.22 60.6203H45.8688L54.557 38.4344Z" fill="#16161A"/>
<path d="M74.7304 57.6415H74.6683C73.9029 58.9241 73.0031 59.8239 71.9688 60.3411C70.9345 60.8375 69.7553 61.0858 68.4314 61.0858C66.7558 61.0858 65.2664 60.8065 63.9632 60.248C62.6807 59.6688 61.574 58.8723 60.6431 57.8587C59.7122 56.8244 58.9985 55.6143 58.5021 54.2283C58.0056 52.8216 57.7574 51.2805 57.7574 49.6049C57.7574 47.7432 58.0677 46.0366 58.6882 44.4851C59.3088 42.9337 60.2087 41.6201 61.3878 40.5444C62.298 39.717 63.3426 39.086 64.5217 38.6516C65.7009 38.2172 67.0351 38 68.5245 38C69.9105 38 71.1517 38.1862 72.248 38.5585C73.3651 38.9102 74.3166 39.417 75.1027 40.079C75.8888 40.7409 76.5197 41.527 76.9955 42.4372C77.492 43.3474 77.8333 44.3403 78.0195 45.416H73.6133C73.3651 44.3403 72.8272 43.4611 71.9998 42.7785C71.1723 42.0752 70.045 41.7235 68.6176 41.7235C67.5626 41.7235 66.6421 41.9304 65.856 42.3441C65.0906 42.7371 64.439 43.2957 63.9012 44.0197C63.384 44.723 62.991 45.5608 62.722 46.533C62.4738 47.4846 62.3497 48.5086 62.3497 49.6049C62.3497 50.7427 62.4945 51.7977 62.7841 52.7699C63.0737 53.7215 63.4874 54.5489 64.0253 55.2523C64.5631 55.9349 65.2147 56.4727 65.9801 56.8658C66.7455 57.2588 67.604 57.4553 68.5555 57.4553C69.4244 57.4553 70.2104 57.3105 70.9138 57.0209C71.6171 56.7313 72.217 56.3486 72.7135 55.8728C73.2099 55.3971 73.5926 54.8592 73.8616 54.2593C74.1305 53.6594 74.2649 53.0492 74.2649 52.4286V52.3045H68.9279V48.8292H78.2677V60.6203H74.8855L74.7304 57.6415Z" fill="#16161A"/>
<path d="M87.5261 38.4344H92.1804L99.9998 60.6203H95.3144L93.825 55.9039H85.8194L84.3611 60.6203H79.7998L87.5261 38.4344ZM86.8744 52.4596H92.739L90.7531 46.0676C90.6497 45.778 90.5462 45.4367 90.4428 45.0436C90.3601 44.6506 90.267 44.2783 90.1635 43.9266C90.0601 43.5129 89.9567 43.0888 89.8533 42.6544H89.7912C89.6671 43.0888 89.5533 43.5129 89.4499 43.9266C89.3464 44.2783 89.243 44.6506 89.1396 45.0436C89.0568 45.4367 88.9637 45.778 88.8603 46.0676L86.8744 52.4596Z" fill="#16161A"/>
</svg>
