<svg width="100" height="100" viewBox="0 0 100 100" fill="none" xmlns="http://www.w3.org/2000/svg">
<g clip-path="url(#clip0_634_4222)">
<path d="M97.6071 8.67854C95.3889 5.34525 91.9617 3.00483 88.0497 2.15179C84.1377 1.29875 80.0474 1.99991 76.6428 4.10711C61.5714 13.5714 49.6785 25.2143 41.3214 38.75C32.9954 52.4291 28.0322 67.8878 26.8392 83.8571C26.6749 86.0181 26.9807 88.1891 27.7357 90.2206C28.4908 92.252 29.6771 94.0958 31.2129 95.6249C32.7488 97.1539 34.5978 98.332 36.6326 99.0781C38.6674 99.8241 40.8397 100.12 42.9999 99.9464C46.5916 99.7359 49.989 98.2459 52.5769 95.7465C55.1647 93.2471 56.7718 89.9035 57.1071 86.3214C59.1964 61.7143 70.9285 43.0178 92.9999 29.2143C94.6835 28.1939 96.1441 26.8445 97.2943 25.2468C98.4445 23.6491 99.2607 21.8358 99.6941 19.9154C100.128 17.9951 100.169 16.007 99.8168 14.0702C99.4643 12.1333 98.7249 10.2874 97.6428 8.64283L97.6071 8.67854Z" fill="#16161A"/>
<path d="M32.3675 31.2C39.397 24.1706 39.397 12.7736 32.3675 5.74415C25.3381 -1.28528 13.9411 -1.28528 6.9117 5.74415C-0.117739 12.7736 -0.117739 24.1706 6.9117 31.2C13.9411 38.2294 25.3381 38.2294 32.3675 31.2Z" fill="#16161A"/>
</g>
<defs>
<clipPath id="clip0_634_4222">
<rect width="100" height="100" fill="white"/>
</clipPath>
</defs>
</svg>
