<svg width="100" height="100" viewBox="0 0 100 100" fill="none" xmlns="http://www.w3.org/2000/svg">
<g clip-path="url(#clip0_1217_6565)">
<path d="M97.6072 8.67854C95.389 5.34525 91.9618 3.00483 88.0499 2.15179C84.1379 1.29875 80.0475 1.99991 76.6429 4.10711C61.5715 13.5714 49.6786 25.2143 41.3215 38.75C32.9956 52.4291 28.0324 67.8878 26.8394 83.8571C26.675 86.0181 26.9808 88.1891 27.7359 90.2206C28.4909 92.252 29.6772 94.0958 31.2131 95.6249C32.7489 97.1539 34.5979 98.332 36.6327 99.0781C38.6675 99.8241 40.8398 100.12 43.0001 99.9464C46.5917 99.7359 49.9891 98.2459 52.577 95.7465C55.1648 93.2471 56.7719 89.9035 57.1072 86.3214C59.1965 61.7143 70.9286 43.0178 93.0001 29.2143C94.6837 28.1939 96.1442 26.8445 97.2944 25.2468C98.4446 23.6491 99.2608 21.8358 99.6942 19.9154C100.128 17.9951 100.169 16.007 99.8169 14.0702C99.4645 12.1333 98.7251 10.2874 97.6429 8.64283L97.6072 8.67854Z" fill="#FAFBFC"/>
<path d="M32.3676 31.2C39.397 24.1706 39.397 12.7736 32.3676 5.74415C25.3382 -1.28528 13.9412 -1.28528 6.91176 5.74415C-0.117678 12.7736 -0.117678 24.1706 6.91176 31.2C13.9412 38.2294 25.3382 38.2294 32.3676 31.2Z" fill="#FAFBFC"/>
</g>
<defs>
<clipPath id="clip0_1217_6565">
<rect width="100" height="100" fill="white"/>
</clipPath>
</defs>
</svg>
