<svg width="100" height="100" viewBox="0 0 100 100" fill="none" xmlns="http://www.w3.org/2000/svg">
<path d="M100 25H0V75H100V25Z" fill="#16161A"/>
<path d="M52.0641 51.948C51.3951 51.759 50.5706 51.6 50.0306 51.6C48.0591 51.6 46.7556 52.8075 46.7556 54.6505C46.7556 55.6035 47.2011 56.463 47.9961 57.099C48.6951 57.6375 49.1406 57.8605 52.1266 59.354C54.2561 60.404 55.1781 61.1025 55.7816 62.0555C56.2576 62.787 56.5136 63.803 56.5136 64.8215C56.5136 66.1865 56.0671 67.458 55.1456 68.698C53.7806 70.4785 51.6511 71.3985 48.7901 71.3985C48.1231 71.3985 47.4546 71.3345 46.6606 71.2095C45.1056 70.9865 44.4986 70.796 43.0051 70.0645C43.5791 68.8255 43.7046 68.38 43.9591 66.8855C44.9771 67.745 45.4201 68.063 46.1511 68.413C47.2011 68.9525 48.3471 69.2055 49.4581 69.2055C51.9991 69.2055 53.7476 67.745 53.7476 65.583C53.7476 64.5345 53.2091 63.644 52.0941 62.8825C51.3656 62.3755 50.8866 62.1525 49.2351 61.39C47.6141 60.658 47.0116 60.34 46.2466 59.7985C44.7546 58.75 44.0556 57.385 44.0556 55.5085C44.0556 53.8875 44.6916 52.362 45.7711 51.281C46.9781 50.075 48.5041 49.534 50.7616 49.534C51.8086 49.534 52.7956 49.66 53.8131 49.883C54.5416 50.042 54.9256 50.1685 55.8771 50.519C55.5591 51.0905 55.4961 51.251 55.3061 51.789C55.0831 52.4585 55.0206 52.6795 54.8596 53.379C53.6526 52.5525 53.1116 52.2975 52.0641 51.948Z" fill="white"/>
<path d="M70.465 52.6495C69.3205 52.5215 67.955 52.458 67.096 52.458H63.696L63.6635 53.729V58.782H67.414C68.8775 58.782 69.481 58.7495 71.197 58.4965C71.069 59.322 71.0365 59.704 71.0365 60.1175C71.0365 60.4665 71.069 60.974 71.1315 61.642C69.13 61.389 68.303 61.3235 66.9705 61.3235H63.631V64.0255C63.631 67.841 63.631 68.3155 63.8535 71.0825C62.9645 70.986 62.298 70.953 61.852 70.953C61.471 70.953 60.93 70.9855 60.1985 71.048C60.326 69.7465 60.3885 68.728 60.454 68.092C60.4865 67.362 60.5165 65.869 60.5165 63.5805V54.8725C60.454 53.2845 60.4215 52.266 60.294 49.7545L62.4555 49.8185L66.206 49.851H69.4475C70.1795 49.851 70.6225 49.851 71.8625 49.692C71.735 50.4875 71.705 50.837 71.705 51.2805C71.705 51.631 71.7355 52.14 71.8 52.8075C71.197 52.711 70.7505 52.679 70.465 52.6495Z" fill="white"/>
<path d="M80.1905 52.5525C80.1905 52.7445 80.158 53.2515 80.158 54.0455C80.128 54.841 80.0955 55.4435 80.0955 55.7945V62.278C80.128 65.582 80.158 65.963 80.794 66.9175C81.5885 68.0925 83.685 68.919 85.9425 68.919C87.531 68.919 88.708 68.665 89.788 67.997C90.3615 67.6475 90.805 67.268 91.0605 66.9175C91.727 65.9315 91.822 65.17 91.822 61.673V56.715C91.822 55.0305 91.7895 53.506 91.694 52.236C91.664 51.28 91.599 50.8365 91.474 49.723C92.1725 49.7885 92.7115 49.851 93.0625 49.851C93.41 49.851 93.9515 49.7885 94.683 49.723C94.6505 50.168 94.6205 50.487 94.588 50.709C94.5555 51.218 94.5225 52.1725 94.5225 53.5065C94.4925 55.255 94.46 56.333 94.46 56.748L94.4925 61.738C94.4925 66.885 94.014 68.283 91.7895 69.841C90.2665 70.921 88.548 71.334 85.7845 71.334C82.8285 71.334 81.2075 70.953 79.714 69.904C78.92 69.3655 78.2835 68.6975 77.8375 67.966C77.106 66.7585 77.011 66.1235 77.011 63.103L76.981 55.54V52.33C76.9485 51.344 76.9155 50.901 76.7905 49.692C77.614 49.7885 78.218 49.851 78.6315 49.851C79.045 49.851 79.649 49.8185 80.443 49.723C80.2855 50.962 80.253 51.4395 80.1905 52.5525Z" fill="white"/>
</svg>
