<svg width="100" height="100" viewBox="0 0 100 100" fill="none" xmlns="http://www.w3.org/2000/svg">
<path d="M87.5 31.25L78.125 25.7792M87.5 31.25V40.625M87.5 31.25L78.125 36.7208M12.5 31.25L21.875 25.7792M12.5 31.25L21.875 36.7208M12.5 31.25V40.625M50 53.125L59.375 47.6542M50 53.125L40.625 47.6542M50 53.125V62.5M50 90.625L59.375 85.1542M50 90.625V81.25M50 90.625L40.625 85.1542M40.625 14.8417L50 9.375L59.375 14.8458M87.5 59.375V68.75L78.125 74.2208M21.875 74.2208L12.5 68.75V59.375" stroke="#16161A" stroke-width="6.25" stroke-linecap="round" stroke-linejoin="round"/>
</svg>
