<svg width="100" height="100" viewBox="0 0 100 100" fill="none" xmlns="http://www.w3.org/2000/svg">
<circle cx="50" cy="50" r="48.5" stroke="#16161A" stroke-width="3"/>
<line x1="50" y1="1" x2="50" y2="98" stroke="#16161A" stroke-width="3"/>
<line x1="98" y1="51.5" y2="51.5" stroke="#16161A" stroke-width="3"/>
<path d="M50.5 97.9999C50.5 97.9999 23 84.5 23 51.5C23 18.5 49.5 1.5 49.5 1.5" stroke="#16161A" stroke-width="3" stroke-linecap="round"/>
<path d="M49.5 97.9999C49.5 97.9999 77 84.5 77 51.5C77 18.5 50.5 1.5 50.5 1.5" stroke="#16161A" stroke-width="3" stroke-linecap="round"/>
<path d="M16 17C16 17 25.5129 29 48.7668 29C72.0207 29 84 17.4364 84 17.4364" stroke="#16161A" stroke-width="3" stroke-linecap="round"/>
<path d="M16 84C16 84 25.5129 72 48.7668 72C72.0207 72 84 83.5636 84 83.5636" stroke="#16161A" stroke-width="3" stroke-linecap="round"/>
<rect x="9" y="35" width="81" height="30.9445" rx="4" fill="white"/>
<path d="M31.7936 59.9445L36.8879 41H32.8019L29.6975 54.0542H29.6444L26.4074 41H22.5071L19.217 53.895H19.1639L16.1657 41H12L17.0147 59.9445H21.2335L24.3909 47.0495H24.444L27.6545 59.9445H31.7936Z" fill="#16161A"/>
<path d="M56.8496 59.9445L61.944 41H57.8579L54.7535 54.0542H54.7005L51.4634 41H47.5631L44.273 53.895H44.2199L41.2217 41H37.056L42.0708 59.9445H46.2895L49.4469 47.0495H49.5L52.7105 59.9445H56.8496Z" fill="#16161A"/>
<path d="M81.9057 59.9445L87 41H82.9139L79.8096 54.0542H79.7565L76.5195 41H72.6191L69.329 53.895H69.276L66.2778 41H62.1121L67.1268 59.9445H71.3456L74.503 47.0495H74.556L77.7665 59.9445H81.9057Z" fill="#16161A"/>
</svg>
