<svg width="96" height="24" viewBox="0 0 96 24" fill="none" xmlns="http://www.w3.org/2000/svg">
<path d="M25.0756 24L31.5294 0H26.3529L22.4202 16.5378H22.3529L18.2521 0H13.3109L9.14286 16.3361H9.07563L5.27731 0H0L6.35294 24H11.6975L15.6975 7.66387H15.7647L19.8319 24H25.0756Z" fill="#16161A"/>
<path d="M56.818 24L63.2718 0H58.0953L54.1625 16.5378H54.0953L49.9945 0H45.0533L40.8852 16.3361H40.818L37.0197 0H31.7424L38.0953 24H43.4399L47.4399 7.66387H47.5071L51.5743 24H56.818Z" fill="#16161A"/>
<path d="M88.5604 24L95.0142 0H89.8377L85.9049 16.5378H85.8377L81.7369 0H76.7957L72.6276 16.3361H72.5604L68.7621 0H63.4848L69.8377 24H75.1822L79.1822 7.66387H79.2495L83.3167 24H88.5604Z" fill="#16161A"/>
</svg>
